<?xml version="1.0" encoding="utf-8"?>
<!DOCTYPE svg PUBLIC "-//W3C//DTD SVG 1.1//EN" "http://www.w3.org/Graphics/SVG/1.1/DTD/svg11.dtd">
<svg version="1.1" id="layer2" xmlns="http://www.w3.org/2000/svg" xmlns:xlink="http://www.w3.org/1999/xlink" x="0px" y="0px"
	 width="300px" height="50px" viewBox="0 0 300 50" enable-background="new 0 0 300 50" xml:space="preserve">
<symbol  id="star" viewBox="-24 -22.826 48 45.652">
	<g>
		<radialGradient id="SVGID_1_" cx="5.3237" cy="-12.9346" r="23.184" gradientUnits="userSpaceOnUse">
			<stop  offset="0" style="stop-color:#FFFFFF"/>
			<stop  offset="1" style="stop-color:#B1BFC7"/>
		</radialGradient>
		<polygon fill="url(#SVGID_1_)" points="0,-14.462 -14.168,-21.912 -11.463,-6.134 -22.926,5.04 -7.084,7.342 0,21.696 
			7.084,7.342 22.926,5.04 11.463,-6.134 14.168,-21.912 		"/>
		<g>
			<path fill="#8C98A0" d="M0,20.566l6.519-13.21l0.233-0.472l0.52-0.076L21.851,4.69L11.302-5.592l-0.376-0.367l0.088-0.518
				l2.49-14.521L0.465-14.142L0-13.897l-0.465-0.245l-13.039-6.856l2.49,14.521l0.088,0.518l-0.376,0.367L-21.851,4.69l14.579,2.119
				l0.52,0.076l0.233,0.472L0,20.566 M0,22.826L-7.416,7.799L-24,5.389l12-11.697l-2.832-16.518L0-15.027l14.832-7.799L12-6.309
				L24,5.389L7.416,7.799L0,22.826L0,22.826z"/>
		</g>
	</g>
</symbol>
<use xlink:href="#star"  width="48" height="45.652" x="-24" y="-22.826" transform="matrix(1 0 0 -1 30 24.9673)" overflow="visible"/>
<use xlink:href="#star"  width="48" height="45.652" x="-24" y="-22.826" transform="matrix(1 0 0 -1 90 24.79)" overflow="visible"/>
<use xlink:href="#star"  width="48" height="45.652" x="-24" y="-22.826" transform="matrix(1 0 0 -1 150.0151 24.9087)" overflow="visible"/>
<use xlink:href="#star"  width="48" height="45.652" x="-24" y="-22.826" transform="matrix(1 0 0 -1 270.0156 24.8491)" overflow="visible"/>
<use xlink:href="#star"  width="48" height="45.652" x="-24" y="-22.826" transform="matrix(1 0 0 -1 210 25.0264)" overflow="visible"/>
</svg>
